<svg width="86" height="78" viewBox="0 0 86 78" fill="none" xmlns="http://www.w3.org/2000/svg">
<path d="M9 0.75L17.5 17.75H30.25L21.75 0.75H30.25L38.75 17.75H51.5L43 0.75H51.5L60 17.75H72.75L64.25 0.75H77C79.3375 0.75 81.3392 1.583 83.0052 3.249C84.6712 4.915 85.5028 6.91533 85.5 9.25V68.75C85.5 71.0875 84.6684 73.0892 83.0052 74.7552C81.3421 76.4212 79.3403 77.2528 77 77.25H9C6.6625 77.25 4.66217 76.4184 2.999 74.7552C1.33583 73.0921 0.502833 71.0903 0.5 68.75V9.25C0.5 6.9125 1.333 4.91217 2.999 3.249C4.665 1.58583 6.66533 0.752833 9 0.75ZM9 26.25V68.75H77V26.25H9ZM26 64.5H60V62.1625C60 59.0458 58.4417 56.5312 55.325 54.6188C52.2083 52.7062 48.1 51.75 43 51.75C37.9 51.75 33.7917 52.7062 30.675 54.6188C27.5583 56.5312 26 59.0458 26 62.1625V64.5ZM43 47.5C45.3375 47.5 47.3392 46.6684 49.0052 45.0052C50.6712 43.3421 51.5028 41.3403 51.5 39C51.5 36.6625 50.6684 34.6622 49.0052 32.999C47.3421 31.3358 45.3403 30.5028 43 30.5C40.6625 30.5 38.6622 31.333 36.999 32.999C35.3358 34.665 34.5028 36.6653 34.5 39C34.5 41.3375 35.333 43.3392 36.999 45.0052C38.665 46.6712 40.6653 47.5028 43 47.5Z" fill="#020127"/>
</svg>
