<svg width="46" height="46" viewBox="0 0 46 46" fill="none" xmlns="http://www.w3.org/2000/svg">
<g id="mdi:movie-open-outline">
<path id="Vector" d="M39.9434 4.17871L32.4109 5.67371L37.6625 12.4587L41.4384 11.692L39.9434 4.17871ZM26.7759 6.78538L23 7.53288L28.2709 14.2987L32.0275 13.5512L26.7759 6.78538ZM17.3842 8.62538L13.6084 9.41121L18.8792 16.177L22.6359 15.4295L17.3842 8.62538ZM7.97335 10.542L6.09502 10.9062C5.60128 11.0036 5.13162 11.1974 4.71296 11.4767C4.2943 11.756 3.93489 12.1151 3.65533 12.5336C3.37577 12.952 3.18155 13.4215 3.08383 13.9152C2.98611 14.4089 2.9868 14.917 3.08586 15.4104L3.83336 19.167L13.225 17.3079L7.97335 10.542ZM38.3334 23.0004V38.3337H7.66669V23.0004H38.3334ZM42.1667 19.167H3.83336V38.3337C3.83336 39.3504 4.23722 40.3254 4.95611 41.0443C5.675 41.7632 6.65003 42.167 7.66669 42.167H38.3334C40.4609 42.167 42.1667 40.4612 42.1667 38.3337V19.167Z" fill="white"/>
</g>
</svg>
