<svg width="40" height="39" viewBox="0 0 40 39" fill="none" xmlns="http://www.w3.org/2000/svg">
<path d="M36.9434 0.178711L29.4109 1.67371L34.6625 8.45871L38.4384 7.69204L36.9434 0.178711ZM23.7759 2.78538L20 3.53288L25.2709 10.2987L29.0275 9.55121L23.7759 2.78538ZM14.3842 4.62538L10.6084 5.41121L15.8792 12.177L19.6359 11.4295L14.3842 4.62538ZM4.97335 6.54204L3.09502 6.90621C2.60128 7.00357 2.13162 7.19744 1.71296 7.4767C1.2943 7.75595 0.93489 8.11511 0.655328 8.53356C0.375766 8.95201 0.181555 9.42154 0.0838322 9.9152C-0.0138906 10.4089 -0.013203 10.917 0.0858554 11.4104L0.833355 15.167L10.225 13.3079L4.97335 6.54204ZM35.3334 19.0004V34.3337H4.66669V19.0004H35.3334ZM39.1667 15.167H0.833355V34.3337C0.833355 35.3504 1.23722 36.3254 1.95611 37.0443C2.675 37.7632 3.65003 38.167 4.66669 38.167H35.3334C37.4609 38.167 39.1667 36.4612 39.1667 34.3337V15.167Z" fill="#020127"/>
</svg>
