<svg width="143" height="143" viewBox="0 0 143 143" fill="none" xmlns="http://www.w3.org/2000/svg">
<g id="iconamoon:profile-circle-fill">
<path id="Vector" fill-rule="evenodd" clip-rule="evenodd" d="M71.5 23.8337C63.1629 23.8321 54.9711 26.0173 47.7425 30.1711C40.5138 34.3249 34.501 40.302 30.3042 47.5058C26.1074 54.7097 23.8735 62.8883 23.8254 71.2253C23.7773 79.5623 25.9167 87.7661 30.03 95.0179C32.8102 91.4046 36.3842 88.4791 40.4755 86.4675C44.5668 84.456 49.0659 83.4122 53.625 83.417H89.375C93.9341 83.4122 98.4332 84.456 102.525 86.4675C106.616 88.4791 110.19 91.4046 112.97 95.0179C117.083 87.7661 119.223 79.5623 119.175 71.2253C119.127 62.8883 116.893 54.7097 112.696 47.5058C108.499 40.302 102.486 34.3249 95.2576 30.1711C88.0289 26.0173 79.8372 23.8321 71.5 23.8337ZM118.827 107.703C126.794 97.3176 131.103 84.5894 131.083 71.5003C131.083 38.5925 104.408 11.917 71.5 11.917C38.5921 11.917 11.9167 38.5925 11.9167 71.5003C11.897 84.5895 16.2061 97.3178 24.173 107.703L24.1432 107.81L26.2584 110.271C31.8466 116.805 38.7851 122.049 46.5956 125.642C54.406 129.235 62.9027 131.091 71.5 131.084C83.5795 131.106 95.3774 127.437 105.314 120.567C109.549 117.641 113.391 114.18 116.742 110.271L118.857 107.81L118.827 107.703ZM71.5 35.7503C66.7593 35.7503 62.2127 37.6336 58.8605 40.9858C55.5083 44.338 53.625 48.8846 53.625 53.6253C53.625 58.3661 55.5083 62.9127 58.8605 66.2649C62.2127 69.6171 66.7593 71.5003 71.5 71.5003C76.2408 71.5003 80.7873 69.6171 84.1396 66.2649C87.4918 62.9127 89.375 58.3661 89.375 53.6253C89.375 48.8846 87.4918 44.338 84.1396 40.9858C80.7873 37.6336 76.2408 35.7503 71.5 35.7503Z" fill="white"/>
</g>
</svg>
