<svg width="46" height="46" viewBox="0 0 46 46" fill="none" xmlns="http://www.w3.org/2000/svg">
<g id="mdi:cart-outline">
<path id="Vector" d="M32.5834 34.4997C33.6 34.4997 34.575 34.9035 35.2939 35.6224C36.0128 36.3413 36.4167 37.3163 36.4167 38.333C36.4167 39.3497 36.0128 40.3247 35.2939 41.0436C34.575 41.7625 33.6 42.1663 32.5834 42.1663C31.5667 42.1663 30.5917 41.7625 29.8728 41.0436C29.1539 40.3247 28.75 39.3497 28.75 38.333C28.75 36.2055 30.4559 34.4997 32.5834 34.4997ZM1.91669 3.83301H8.18419L9.98585 7.66634H38.3334C38.8417 7.66634 39.3292 7.86828 39.6886 8.22772C40.0481 8.58716 40.25 9.07468 40.25 9.58301C40.25 9.90884 40.1542 10.2347 40.02 10.5413L33.1584 22.9422C32.5067 24.1113 31.2417 24.9163 29.8042 24.9163H15.525L13.8 28.0405L13.7425 28.2705C13.7425 28.3976 13.793 28.5195 13.8829 28.6093C13.9727 28.6992 14.0946 28.7497 14.2217 28.7497H36.4167V32.583H13.4167C12.4 32.583 11.425 32.1791 10.7061 31.4602C9.98722 30.7414 9.58335 29.7663 9.58335 28.7497C9.58335 28.0788 9.75585 27.4463 10.0434 26.9097L12.65 22.2138L5.75002 7.66634H1.91669V3.83301ZM13.4167 34.4997C14.4333 34.4997 15.4084 34.9035 16.1273 35.6224C16.8462 36.3413 17.25 37.3163 17.25 38.333C17.25 39.3497 16.8462 40.3247 16.1273 41.0436C15.4084 41.7625 14.4333 42.1663 13.4167 42.1663C12.4 42.1663 11.425 41.7625 10.7061 41.0436C9.98722 40.3247 9.58335 39.3497 9.58335 38.333C9.58335 36.2055 11.2892 34.4997 13.4167 34.4997ZM30.6667 21.083L35.995 11.4997H11.7684L16.2917 21.083H30.6667Z" fill="white"/>
</g>
</svg>
