<svg width="63" height="63" viewBox="0 0 63 63" fill="none" xmlns="http://www.w3.org/2000/svg">
<g id="solar:chair-outline">
<path id="Vector" fill-rule="evenodd" clip-rule="evenodd" d="M31.4055 5.90625H31.5945C33.9675 5.90625 35.8811 5.90625 37.4273 6.04537C39.018 6.18975 40.4093 6.49688 41.6719 7.22663C43.1685 8.09002 44.4115 9.33212 45.276 10.8281C46.0057 12.0908 46.3103 13.482 46.4546 15.0728C46.5938 16.6189 46.5938 18.5325 46.5938 20.9055V29.8489C47.8905 30.1219 49.0639 30.66 50.0115 31.7389C51.1796 33.0776 51.5602 34.7471 51.7204 36.5846L51.7309 36.708C51.8228 37.7843 51.912 38.8001 51.8542 39.6506C51.7886 40.6245 51.5235 41.6194 50.7334 42.4804C49.9196 43.3729 48.8906 43.701 47.9089 43.8428C47.5099 43.9005 47.0689 43.932 46.5964 43.9478V55.125C46.5964 55.6471 46.389 56.1479 46.0197 56.5171C45.6505 56.8863 45.1498 57.0938 44.6276 57.0938C44.1055 57.0938 43.6047 56.8863 43.2355 56.5171C42.8663 56.1479 42.6589 55.6471 42.6589 55.125V43.9688H20.3464V55.125C20.3464 55.6471 20.139 56.1479 19.7697 56.5171C19.4005 56.8863 18.8998 57.0938 18.3776 57.0938C17.8555 57.0938 17.3547 56.8863 16.9855 56.5171C16.6163 56.1479 16.4089 55.6471 16.4089 55.125V43.9478C15.9681 43.9356 15.5283 43.9006 15.0911 43.8428C14.1094 43.701 13.083 43.3703 12.2666 42.4804C11.4765 41.6194 11.2114 40.6245 11.1457 39.6506C11.088 38.8001 11.1773 37.7816 11.2691 36.7106L11.2796 36.5846C11.4371 34.7471 11.8204 33.0776 12.9885 31.7415C13.9361 30.66 15.1095 30.1219 16.4062 29.8489V20.9055C16.4062 18.5325 16.4062 16.6189 16.5454 15.0728C16.6897 13.482 16.9969 12.0908 17.7266 10.8281C18.59 9.33149 19.8321 8.08848 21.3281 7.224C22.5907 6.49688 23.982 6.18975 25.5727 6.04537C27.1189 5.90625 29.0325 5.90625 31.4055 5.90625ZM22.1655 29.5312H20.3438V21C20.3438 18.5115 20.3438 16.7737 20.4671 15.4297C20.5879 14.1094 20.8084 13.3612 21.1365 12.7969C21.6543 11.8988 22.3994 11.1528 23.2969 10.6339C23.8612 10.3084 24.6094 10.0879 25.9297 9.96712C27.2738 9.84637 29.0115 9.84375 31.5 9.84375C33.9885 9.84375 35.7262 9.84375 37.0702 9.96712C38.3906 10.0879 39.1388 10.3084 39.7031 10.6339C40.6009 11.1536 41.3464 11.8991 41.8661 12.7969C42.1916 13.3612 42.4121 14.1094 42.5329 15.4297C42.6536 16.7737 42.6562 18.5115 42.6562 21V29.5312H40.8345H22.1655ZM22.3125 33.4688C20.0839 33.4688 18.6375 33.474 17.5717 33.6394C16.59 33.789 16.2146 34.0331 15.9521 34.335C15.6214 34.713 15.3379 35.343 15.204 36.9206C15.0964 38.1649 15.0412 38.8763 15.0727 39.3881C15.0769 39.5164 15.098 39.6435 15.1357 39.7661C15.1462 39.7924 15.1515 39.8003 15.1672 39.8186L15.1699 39.8213L15.1777 39.8265C15.3283 39.887 15.4864 39.9268 15.6476 39.9446C16.2199 40.026 17.0231 40.0312 18.3776 40.0312H44.6276C45.9769 40.0312 46.7801 40.026 47.3524 39.9446C47.5136 39.9268 47.6717 39.887 47.8223 39.8265L47.8301 39.8239L47.8328 39.8186C47.8474 39.804 47.8582 39.7859 47.8643 39.7661C47.901 39.6434 47.9213 39.5162 47.9246 39.3881C47.9588 38.8763 47.9036 38.1649 47.796 36.9206C47.6621 35.3456 47.3786 34.713 47.0479 34.335C46.7854 34.0357 46.41 33.789 45.4282 33.6394C44.3625 33.474 42.9161 33.4688 40.6875 33.4688H22.3125Z" fill="#192553"/>
</g>
</svg>
