<svg width="63" height="63" viewBox="0 0 63 63" fill="none" xmlns="http://www.w3.org/2000/svg">
<g id="uil:ticket">
<path id="Vector" d="M23.625 26.25C22.9288 26.25 22.2611 26.5266 21.7688 27.0188C21.2766 27.5111 21 28.1788 21 28.875V34.125C21 34.8212 21.2766 35.4889 21.7688 35.9812C22.2611 36.4734 22.9288 36.75 23.625 36.75C24.3212 36.75 24.9889 36.4734 25.4812 35.9812C25.9734 35.4889 26.25 34.8212 26.25 34.125V28.875C26.25 28.1788 25.9734 27.5111 25.4812 27.0188C24.9889 26.5266 24.3212 26.25 23.625 26.25ZM55.125 28.875C55.8212 28.875 56.4889 28.5984 56.9812 28.1062C57.4734 27.6139 57.75 26.9462 57.75 26.25V15.75C57.75 15.0538 57.4734 14.3861 56.9812 13.8938C56.4889 13.4016 55.8212 13.125 55.125 13.125H7.875C7.17881 13.125 6.51113 13.4016 6.01884 13.8938C5.52656 14.3861 5.25 15.0538 5.25 15.75V26.25C5.25 26.9462 5.52656 27.6139 6.01884 28.1062C6.51113 28.5984 7.17881 28.875 7.875 28.875C8.57119 28.875 9.23887 29.1516 9.73116 29.6438C10.2234 30.1361 10.5 30.8038 10.5 31.5C10.5 32.1962 10.2234 32.8639 9.73116 33.3562C9.23887 33.8484 8.57119 34.125 7.875 34.125C7.17881 34.125 6.51113 34.4016 6.01884 34.8938C5.52656 35.3861 5.25 36.0538 5.25 36.75V47.25C5.25 47.9462 5.52656 48.6139 6.01884 49.1062C6.51113 49.5984 7.17881 49.875 7.875 49.875H55.125C55.8212 49.875 56.4889 49.5984 56.9812 49.1062C57.4734 48.6139 57.75 47.9462 57.75 47.25V36.75C57.75 36.0538 57.4734 35.3861 56.9812 34.8938C56.4889 34.4016 55.8212 34.125 55.125 34.125C54.4288 34.125 53.7611 33.8484 53.2688 33.3562C52.7766 32.8639 52.5 32.1962 52.5 31.5C52.5 30.8038 52.7766 30.1361 53.2688 29.6438C53.7611 29.1516 54.4288 28.875 55.125 28.875ZM52.5 24.0975C50.9797 24.6493 49.6662 25.6558 48.738 26.9802C47.8097 28.3046 47.3117 29.8827 47.3117 31.5C47.3117 33.1173 47.8097 34.6954 48.738 36.0198C49.6662 37.3442 50.9797 38.3507 52.5 38.9025V44.625H26.25C26.25 43.9288 25.9734 43.2611 25.4812 42.7688C24.9889 42.2766 24.3212 42 23.625 42C22.9288 42 22.2611 42.2766 21.7688 42.7688C21.2766 43.2611 21 43.9288 21 44.625H10.5V38.9025C12.0203 38.3507 13.3338 37.3442 14.262 36.0198C15.1903 34.6954 15.6883 33.1173 15.6883 31.5C15.6883 29.8827 15.1903 28.3046 14.262 26.9802C13.3338 25.6558 12.0203 24.6493 10.5 24.0975V18.375H21C21 19.0712 21.2766 19.7389 21.7688 20.2312C22.2611 20.7234 22.9288 21 23.625 21C24.3212 21 24.9889 20.7234 25.4812 20.2312C25.9734 19.7389 26.25 19.0712 26.25 18.375H52.5V24.0975Z" fill="#192553"/>
</g>
</svg>
